<svg version="1.1" id="Layer_1" xmlns="http://www.w3.org/2000/svg" xmlns:xlink="http://www.w3.org/1999/xlink" x="0px" y="0px"
	 width="100%" viewBox="0 0 320 320" enable-background="new 0 0 320 320" xml:space="preserve">
<path fill="#000000" opacity="1.000000" stroke="none" 
	d="
M178.000000,321.000000 
	C118.666687,321.000000 59.833374,321.000000 1.000047,321.000000 
	C1.000032,214.333389 1.000032,107.666786 1.000016,1.000133 
	C107.666565,1.000089 214.333130,1.000089 320.999756,1.000044 
	C320.999847,107.666534 320.999847,214.333069 320.999939,320.999817 
	C273.500000,321.000000 226.000000,321.000000 178.000000,321.000000 
M181.815140,44.261097 
	C180.650665,43.830368 179.489151,43.034767 178.321259,43.025284 
	C166.519531,42.929470 154.715912,42.896885 142.915421,43.047939 
	C141.555862,43.065346 140.211975,44.306679 137.961166,44.986347 
	C132.177368,45.675972 126.380211,46.271114 120.614288,47.087063 
	C116.486198,47.671238 112.390976,48.505672 108.298203,49.315010 
	C105.529427,49.862534 102.683327,50.273632 100.061035,51.252617 
	C95.067001,53.117043 90.210983,55.350357 85.292999,57.419441 
	C75.061691,61.723923 64.578926,65.526871 54.683781,70.499580 
	C48.352341,73.681374 42.703594,78.353134 37.076675,82.774239 
	C28.861498,89.228951 20.847889,95.953712 13.033358,102.884689 
	C12.219538,103.606499 12.625963,107.168365 13.670733,108.266464 
	C18.055117,112.874596 22.897820,117.046646 27.640938,121.441628 
	C64.891815,84.565880 109.903236,66.342400 161.163406,66.329994 
	C212.456268,66.317581 257.361938,84.811501 296.114960,123.129700 
	C299.850189,118.435204 302.890289,113.182114 307.266174,109.529106 
	C311.404785,106.074165 310.152527,104.237526 307.312561,101.404861 
	C298.237122,92.352692 288.381958,84.297134 277.403748,77.656509 
	C269.939514,73.141457 262.661499,68.240105 254.881256,64.349205 
	C247.813034,60.814396 240.189362,58.384132 232.789978,55.520111 
	C228.764404,53.961948 224.772156,52.236923 220.624527,51.098503 
	C216.813065,50.052349 212.721146,50.022892 208.915359,48.962162 
	C200.155991,46.520782 191.346725,44.714516 181.815140,44.261097 
M128.748703,110.906143 
	C133.202408,110.184601 137.644257,108.942177 142.112061,108.840637 
	C154.763763,108.553093 167.426071,108.729805 180.084213,108.733360 
	C181.079742,108.733643 182.117569,108.640198 183.063721,108.877495 
	C188.259750,110.180649 193.463104,111.470757 198.606705,112.962631 
	C204.336380,114.624496 210.109406,116.227356 215.662201,118.376244 
	C219.243210,119.762070 222.387268,122.235260 225.860855,123.950333 
	C230.913452,126.445053 236.474899,128.109055 241.119904,131.183929 
	C248.646240,136.166183 255.500381,142.154846 262.897705,147.349197 
	C264.259949,148.305771 267.574402,148.367386 268.748901,147.375351 
	C273.480743,143.378632 277.726868,138.806839 282.623840,133.983154 
	C247.601639,102.450600 208.190094,84.911942 160.744675,85.016449 
	C113.268448,85.121033 73.888878,102.695160 39.479591,134.284698 
	C41.684017,136.198318 43.384579,137.513962 44.894302,139.020798 
	C47.506054,141.627563 50.030724,144.324051 52.533096,147.037170 
	C54.742310,149.432449 56.827759,150.305176 59.386375,147.364014 
	C60.700539,145.853378 62.406174,144.638947 64.069077,143.483795 
	C70.683449,138.889084 77.212067,134.146896 84.050133,129.907227 
	C88.166626,127.354965 93.633682,126.516052 97.004395,123.330971 
	C102.550774,118.090034 109.611603,117.514885 116.022377,114.975372 
	C119.954384,113.417770 124.041809,112.252510 128.748703,110.906143 
M214.865112,137.672928 
	C213.613312,137.298416 211.944580,137.310944 211.178452,136.485611 
	C206.731720,131.695358 200.200928,132.365097 194.771027,130.381912 
	C189.028351,128.284485 182.100220,129.567413 176.205582,127.724396 
	C162.660522,123.489403 149.459808,128.250076 136.111832,128.138748 
	C132.868561,128.111694 129.499985,129.104050 126.388763,130.196503 
	C120.145164,132.388840 113.919197,134.710403 107.904396,137.456985 
	C98.597160,141.707016 89.387337,146.172836 81.613884,153.095657 
	C78.193443,156.141815 74.382545,158.749512 69.991524,162.141327 
	C70.085518,162.520767 69.981964,164.661789 71.001602,165.759857 
	C74.697487,169.739990 78.966606,173.191498 82.619919,177.206009 
	C84.517708,179.291428 85.713028,179.390640 87.889969,177.806656 
	C94.761353,172.806900 101.532722,167.596497 108.813316,163.257034 
	C113.997688,160.167007 119.931122,158.326736 125.551399,155.979309 
	C127.250504,155.269638 129.020248,154.729095 130.757645,154.111084 
	C133.876862,153.183578 136.728928,151.431824 139.738083,151.098557 
	C148.779953,150.097229 157.877060,149.272263 166.964569,149.127335 
	C172.360535,149.041260 177.879807,149.942978 183.154037,151.197586 
	C187.053177,152.125076 190.518387,155.230713 194.403305,155.788040 
	C201.761826,156.843689 208.142700,160.011932 214.227783,163.680420 
	C221.038452,167.786316 227.416473,172.644012 233.770584,177.454788 
	C236.050751,179.181122 237.223190,179.578156 239.386902,177.174072 
	C243.022324,173.134781 247.446045,169.804153 251.072723,165.758209 
	C252.699081,163.943863 252.941849,161.306030 249.616302,159.952957 
	C247.908920,159.258270 246.174606,158.260742 244.884857,156.968506 
	C236.441345,148.508682 226.236526,142.878372 214.865112,137.672928 
M185.470306,228.550735 
	C185.470306,225.125732 185.470306,221.700729 185.470306,218.318863 
	C168.820374,218.318863 152.899124,218.318863 136.556915,218.318863 
	C136.556915,232.786194 136.627014,246.935104 136.529633,261.082855 
	C136.474457,269.096588 144.151321,276.986023 152.310516,277.002289 
	C157.975876,277.013580 163.641266,277.009705 169.306625,277.002167 
	C177.868607,276.990814 185.534760,269.178375 185.511688,260.530090 
	C185.484131,250.199295 185.482849,239.868454 185.470306,228.550735 
M134.001587,239.501404 
	C134.001587,246.043442 134.001587,252.585480 134.001587,259.127533 
	C134.239517,259.118439 134.477432,259.109344 134.715363,259.100250 
	C134.715363,246.963928 134.715363,234.827591 134.715363,222.691254 
	C134.477432,222.689316 134.239517,222.687393 134.001587,222.685455 
	C134.001587,227.957916 134.001587,233.230377 134.001587,239.501404 
z"/>
<path fill="#EF2B44" opacity="1.000000" stroke="none" 
	d="
M182.202026,45.017433 
	C191.346725,44.714516 200.155991,46.520782 208.915359,48.962162 
	C212.721146,50.022892 216.813065,50.052349 220.624527,51.098503 
	C224.772156,52.236923 228.764404,53.961948 232.789978,55.520111 
	C240.189362,58.384132 247.813034,60.814396 254.881256,64.349205 
	C262.661499,68.240105 269.939514,73.141457 277.403748,77.656509 
	C288.381958,84.297134 298.237122,92.352692 307.312561,101.404861 
	C310.152527,104.237526 311.404785,106.074165 307.266174,109.529106 
	C302.890289,113.182114 299.850189,118.435204 296.114960,123.129700 
	C257.361938,84.811501 212.456268,66.317581 161.163406,66.329994 
	C109.903236,66.342400 64.891815,84.565880 27.640938,121.441628 
	C22.897820,117.046646 18.055117,112.874596 13.670733,108.266464 
	C12.625963,107.168365 12.219538,103.606499 13.033358,102.884689 
	C20.847889,95.953712 28.861498,89.228951 37.076675,82.774239 
	C42.703594,78.353134 48.352341,73.681374 54.683781,70.499580 
	C64.578926,65.526871 75.061691,61.723923 85.292999,57.419441 
	C90.210983,55.350357 95.067001,53.117043 100.061035,51.252617 
	C102.683327,50.273632 105.529427,49.862534 108.298203,49.315010 
	C112.390976,48.505672 116.486198,47.671238 120.614288,47.087063 
	C126.380211,46.271114 132.177368,45.675972 138.807922,45.113853 
	C153.837112,45.166721 168.019577,45.092075 182.202026,45.017433 
z"/>
<path fill="#EE2A44" opacity="1.000000" stroke="none" 
	d="
M128.404083,110.908607 
	C124.041809,112.252510 119.954384,113.417770 116.022377,114.975372 
	C109.611603,117.514885 102.550774,118.090034 97.004395,123.330971 
	C93.633682,126.516052 88.166626,127.354965 84.050133,129.907227 
	C77.212067,134.146896 70.683449,138.889084 64.069077,143.483795 
	C62.406174,144.638947 60.700539,145.853378 59.386375,147.364014 
	C56.827759,150.305176 54.742310,149.432449 52.533096,147.037170 
	C50.030724,144.324051 47.506054,141.627563 44.894302,139.020798 
	C43.384579,137.513962 41.684017,136.198318 39.479591,134.284698 
	C73.888878,102.695160 113.268448,85.121033 160.744675,85.016449 
	C208.190094,84.911942 247.601639,102.450600 282.623840,133.983154 
	C277.726868,138.806839 273.480743,143.378632 268.748901,147.375351 
	C267.574402,148.367386 264.259949,148.305771 262.897705,147.349197 
	C255.500381,142.154846 248.646240,136.166183 241.119904,131.183929 
	C236.474899,128.109055 230.913452,126.445053 225.860855,123.950333 
	C222.387268,122.235260 219.243210,119.762070 215.662201,118.376244 
	C210.109406,116.227356 204.336380,114.624496 198.606705,112.962631 
	C193.463104,111.470757 188.259750,110.180649 183.063721,108.877495 
	C182.117569,108.640198 181.079742,108.733643 180.084213,108.733360 
	C167.426071,108.729805 154.763763,108.553093 142.112061,108.840637 
	C137.644257,108.942177 133.202408,110.184601 128.404083,110.908607 
z"/>
<path fill="#EF2A44" opacity="1.000000" stroke="none" 
	d="
M215.128632,137.950943 
	C226.236526,142.878372 236.441345,148.508682 244.884857,156.968506 
	C246.174606,158.260742 247.908920,159.258270 249.616302,159.952957 
	C252.941849,161.306030 252.699081,163.943863 251.072723,165.758209 
	C247.446045,169.804153 243.022324,173.134781 239.386902,177.174072 
	C237.223190,179.578156 236.050751,179.181122 233.770584,177.454788 
	C227.416473,172.644012 221.038452,167.786316 214.227783,163.680420 
	C208.142700,160.011932 201.761826,156.843689 194.403305,155.788040 
	C190.518387,155.230713 187.053177,152.125076 183.154037,151.197586 
	C177.879807,149.942978 172.360535,149.041260 166.964569,149.127335 
	C157.877060,149.272263 148.779953,150.097229 139.738083,151.098557 
	C136.728928,151.431824 133.876862,153.183578 130.757645,154.111084 
	C129.020248,154.729095 127.250504,155.269638 125.551399,155.979309 
	C119.931122,158.326736 113.997688,160.167007 108.813316,163.257034 
	C101.532722,167.596497 94.761353,172.806900 87.889969,177.806656 
	C85.713028,179.390640 84.517708,179.291428 82.619919,177.206009 
	C78.966606,173.191498 74.697487,169.739990 71.001602,165.759857 
	C69.981964,164.661789 70.085518,162.520767 69.991524,162.141327 
	C74.382545,158.749512 78.193443,156.141815 81.613884,153.095657 
	C89.387337,146.172836 98.597160,141.707016 107.904396,137.456985 
	C113.919197,134.710403 120.145164,132.388840 126.388763,130.196503 
	C129.499985,129.104050 132.868561,128.111694 136.111832,128.138748 
	C149.459808,128.250076 162.660522,123.489403 176.205582,127.724396 
	C182.100220,129.567413 189.028351,128.284485 194.771027,130.381912 
	C200.200928,132.365097 206.731720,131.695358 211.178452,136.485611 
	C211.944580,137.310944 213.613312,137.298416 215.128632,137.950943 
z"/>
<path fill="#F32B45" opacity="1.000000" stroke="none" 
	d="
M185.470245,229.044189 
	C185.482849,239.868454 185.484131,250.199295 185.511688,260.530090 
	C185.534760,269.178375 177.868607,276.990814 169.306625,277.002167 
	C163.641266,277.009705 157.975876,277.013580 152.310516,277.002289 
	C144.151321,276.986023 136.474457,269.096588 136.529633,261.082855 
	C136.627014,246.935104 136.556915,232.786194 136.556915,218.318863 
	C152.899124,218.318863 168.820374,218.318863 185.470306,218.318863 
	C185.470306,221.700729 185.470306,225.125732 185.470245,229.044189 
z"/>
<path fill="#F98292" opacity="1.000000" stroke="none" 
	d="
M182.008575,44.639267 
	C168.019577,45.092075 153.837112,45.166721 139.257751,45.110954 
	C140.211975,44.306679 141.555862,43.065346 142.915421,43.047939 
	C154.715912,42.896885 166.519531,42.929470 178.321259,43.025284 
	C179.489151,43.034767 180.650665,43.830368 182.008575,44.639267 
z"/>
<path fill="#800000" opacity="1.000000" stroke="none" 
	d="
M134.001587,239.002121 
	C134.001587,233.230377 134.001587,227.957916 134.001587,222.685455 
	C134.239517,222.687393 134.477432,222.689316 134.715363,222.691254 
	C134.715363,234.827591 134.715363,246.963928 134.715363,259.100250 
	C134.477432,259.109344 134.239517,259.118439 134.001587,259.127533 
	C134.001587,252.585480 134.001587,246.043442 134.001587,239.002121 
z"/>
</svg>